<?xml version="1.0" encoding="utf-8"?><svg xmlns="http://www.w3.org/2000/svg" xmlns:xlink="http://www.w3.org/1999/xlink" width="1366" height="657" preserveAspectRatio="xMidYMid" viewBox="0 0 1366 657" style="z-index:1;margin-right:-2px;display:block;background-repeat-y:initial;background-repeat-x:initial;animation-play-state:paused" ><g transform="" style="animation-play-state:paused" ><linearGradient id="lg-0.26858966747889146" x1="0" x2="1" y1="0" y2="0" style="animation-play-state:paused" ><stop stop-color="#ff00ff" offset="0" style="animation-play-state:paused" ></stop>

  
<stop stop-color="#6b5fc2" offset="1" style="animation-play-state:paused" ></stop></linearGradient>
<path d="M 0 0 L 0 630.032 Q 170.75 599.574 341.5 567.999 T 683 577.172 T 1024.5 601.808 T 1366 470.912 L 1366 0 Z" fill="url(#lg-0.26858966747889146)" opacity="0.4" style="opacity:0.4;animation-play-state:paused" ></path>
<path d="M 0 0 L 0 624.418 Q 170.75 612.404 341.5 577.102 T 683 573.256 T 1024.5 592.272 T 1366 522.985 L 1366 0 Z" fill="url(#lg-0.26858966747889146)" opacity="0.4" style="opacity:0.4;animation-play-state:paused" ></path>
<path d="M 0 0 L 0 661.812 Q 170.75 629.926 341.5 597.026 T 683 591.16 T 1024.5 593.065 T 1366 544.119 L 1366 0 Z" fill="url(#lg-0.26858966747889146)" opacity="0.4" style="opacity:0.4;animation-play-state:paused" ></path>
<path d="M 0 0 L 0 589.292 Q 170.75 641.679 341.5 608.936 T 683 573.218 T 1024.5 530.482 T 1366 538.139 L 1366 0 Z" fill="url(#lg-0.26858966747889146)" opacity="0.4" style="opacity:0.4;animation-play-state:paused" ></path></g></svg>