<?xml version="1.0" standalone="no"?><svg xmlns="http://www.w3.org/2000/svg" viewBox="0 0 1440 320"><path fill="#aa2ff2" fill-opacity="1" d="M0,32L24,32C48,32,96,32,144,80C192,128,240,224,288,234.7C336,245,384,171,432,144C480,117,528,139,576,128C624,117,672,75,720,96C768,117,816,203,864,197.3C912,192,960,96,1008,96C1056,96,1104,192,1152,240C1200,288,1248,288,1296,266.7C1344,245,1392,203,1416,181.3L1440,160L1440,320L1416,320C1392,320,1344,320,1296,320C1248,320,1200,320,1152,320C1104,320,1056,320,1008,320C960,320,912,320,864,320C816,320,768,320,720,320C672,320,624,320,576,320C528,320,480,320,432,320C384,320,336,320,288,320C240,320,192,320,144,320C96,320,48,320,24,320L0,320Z"></path></svg>