<?xml version="1.0" standalone="no"?><svg xmlns="http://www.w3.org/2000/svg" viewBox="0 0 1440 320"><path fill="#aa2ff2" fill-opacity="1" d="M0,256L30,250.7C60,245,120,235,180,208C240,181,300,139,360,128C420,117,480,139,540,138.7C600,139,660,117,720,133.3C780,149,840,203,900,192C960,181,1020,107,1080,64C1140,21,1200,11,1260,10.7C1320,11,1380,21,1410,26.7L1440,32L1440,320L1410,320C1380,320,1320,320,1260,320C1200,320,1140,320,1080,320C1020,320,960,320,900,320C840,320,780,320,720,320C660,320,600,320,540,320C480,320,420,320,360,320C300,320,240,320,180,320C120,320,60,320,30,320L0,320Z"></path></svg>