<?xml version="1.0" encoding="utf-8"?><svg xmlns="http://www.w3.org/2000/svg" xmlns:xlink="http://www.w3.org/1999/xlink" width="1366" height="723" preserveAspectRatio="xMidYMid" viewBox="0 0 1366 723" style="z-index:1;margin-right:-2px;display:block;background-repeat-y:initial;background-repeat-x:initial;animation-play-state:paused" ><g transform="" style="animation-play-state:paused" ><linearGradient id="lg-0.9870817674234249" x1="0" x2="1" y1="0" y2="0" style="animation-play-state:paused" ><stop stop-color="#ff00ff" offset="0" style="animation-play-state:paused" ></stop>

  
<stop stop-color="#4b3cb5" offset="1" style="animation-play-state:paused" ></stop></linearGradient>
<path d="M 0 0 L 0 620.839 Q 136.6 563.817 273.2 537.331 T 546.4 564.93 T 819.6 527.804 T 1092.8 346.822 T 1366 291.586 L 1366 0 Z" fill="url(#lg-0.9870817674234249)" opacity="0.4" style="opacity:0.4;animation-play-state:paused" ></path>
<path d="M 0 0 L 0 672.934 Q 136.6 615.741 273.2 576.893 T 546.4 527.977 T 819.6 431.532 T 1092.8 348.426 T 1366 290.741 L 1366 0 Z" fill="url(#lg-0.9870817674234249)" opacity="0.4" style="opacity:0.4;animation-play-state:paused" ></path>
<path d="M 0 0 L 0 679.067 Q 136.6 622.805 273.2 590.184 T 546.4 571.218 T 819.6 475.522 T 1092.8 369.56 T 1366 320.123 L 1366 0 Z" fill="url(#lg-0.9870817674234249)" opacity="0.4" style="opacity:0.4;animation-play-state:paused" ></path>
<path d="M 0 0 L 0 613.492 Q 136.6 638.236 273.2 611.532 T 546.4 547.05 T 819.6 516.452 T 1092.8 373.948 T 1366 327.96 L 1366 0 Z" fill="url(#lg-0.9870817674234249)" opacity="0.4" style="opacity:0.4;animation-play-state:paused" ></path>
<path d="M 0 0 L 0 681.173 Q 136.6 613.266 273.2 581.327 T 546.4 518.409 T 819.6 443.051 T 1092.8 400.142 T 1366 306.817 L 1366 0 Z" fill="url(#lg-0.9870817674234249)" opacity="0.4" style="opacity:0.4;animation-play-state:paused" ></path></g></svg>