<?xml version="1.0" standalone="no"?><svg xmlns="http://www.w3.org/2000/svg" viewBox="0 0 1440 320"><path fill="#aa2ff2" fill-opacity="1" d="M0,224L24,197.3C48,171,96,117,144,133.3C192,149,240,235,288,266.7C336,299,384,277,432,272C480,267,528,277,576,250.7C624,224,672,160,720,117.3C768,75,816,53,864,58.7C912,64,960,96,1008,112C1056,128,1104,128,1152,138.7C1200,149,1248,171,1296,149.3C1344,128,1392,64,1416,32L1440,0L1440,320L1416,320C1392,320,1344,320,1296,320C1248,320,1200,320,1152,320C1104,320,1056,320,1008,320C960,320,912,320,864,320C816,320,768,320,720,320C672,320,624,320,576,320C528,320,480,320,432,320C384,320,336,320,288,320C240,320,192,320,144,320C96,320,48,320,24,320L0,320Z"></path></svg>